<?xml version="1.0" standalone="no"?>
<!DOCTYPE svg PUBLIC "-//W3C//DTD SVG 20010904//EN"
 "http://www.w3.org/TR/2001/REC-SVG-20010904/DTD/svg10.dtd">
<svg version="1.0" xmlns="http://www.w3.org/2000/svg"
 width="640.000000pt" height="640.000000pt" viewBox="0 0 640.000000 640.000000"
 preserveAspectRatio="xMidYMid meet">
<metadata>
Created by potrace 1.14, written by Peter Selinger 2001-2017
</metadata>
<g transform="translate(0.000000,640.000000) scale(0.100000,-0.100000)"
fill="#000000" stroke="none">
<path d="M3122 6380 c-16 -26 -15 -30 3 -30 14 0 13 -3 -2 -24 -10 -13 -31
-32 -48 -42 -55 -33 -144 -125 -156 -163 -6 -20 -18 -43 -25 -52 -10 -11 -11
-18 -3 -26 12 -12 -23 -67 -65 -105 -10 -10 -16 -18 -12 -18 4 0 1 -6 -6 -14
-7 -7 -18 -11 -25 -9 -7 3 -10 -2 -7 -14 4 -17 -8 -40 -53 -102 l-18 -25 28
18 c35 23 35 11 0 -62 -15 -31 -28 -68 -29 -82 -10 -146 -59 -246 -144 -299
-97 -60 -337 -300 -510 -510 -25 -30 -71 -80 -102 -112 -32 -32 -58 -60 -58
-63 0 -6 -6 -14 -61 -80 -108 -132 -226 -347 -277 -506 -38 -118 -84 -243
-111 -304 -11 -26 -30 -88 -42 -139 -12 -51 -28 -106 -35 -124 -18 -40 -18
-44 4 -41 21 4 21 -4 -2 -71 -15 -43 -16 -55 -5 -61 10 -7 10 -22 -4 -82 -9
-40 -23 -125 -32 -188 -10 -63 -27 -141 -40 -172 -26 -65 -18 -82 20 -44 14
15 29 26 32 26 11 0 -6 -88 -35 -176 -38 -117 -46 -147 -32 -139 5 3 10 -2 10
-11 0 -14 3 -15 12 -6 11 11 58 17 58 7 0 -2 -6 -24 -14 -47 -42 -125 -46
-149 -30 -155 11 -4 14 -14 10 -34 -4 -23 -2 -27 11 -22 13 5 15 2 9 -13 -20
-51 -106 -314 -106 -323 0 -6 7 -11 15 -11 17 0 18 -2 6 -52 -10 -42 -5 -47
15 -20 13 16 13 16 14 -2 0 -27 -22 -96 -31 -96 -4 0 -5 -8 -2 -19 11 -43
-143 -526 -227 -711 -26 -58 -62 -141 -81 -185 -18 -44 -39 -91 -46 -105 -9
-17 -9 -26 -2 -31 7 -4 8 -16 3 -30 -4 -13 -8 -48 -9 -78 l-2 -54 28 32 c15
18 32 30 38 27 5 -4 25 20 44 51 20 32 56 80 80 107 37 40 46 45 49 30 3 -16
7 -13 21 13 26 48 41 53 34 11 -5 -31 -3 -34 16 -33 11 1 40 24 64 51 l43 48
0 -32 c0 -21 4 -31 11 -27 10 7 105 149 129 195 8 16 15 20 18 12 3 -10 7 -10
18 -1 10 8 14 8 14 0 0 -23 29 -10 59 26 31 38 33 37 45 -19 4 -16 1 -28 -6
-30 -9 -3 -14 -77 -20 -264 -7 -219 -34 -571 -54 -706 l-6 -37 271 -1 271 0 4
22 c3 13 8 59 11 103 4 55 14 95 31 129 14 28 23 59 20 70 -3 11 1 27 9 36 7
8 16 35 19 60 3 25 21 104 40 175 19 72 49 189 66 260 17 72 35 145 40 164 8
31 24 50 43 51 4 0 7 -5 7 -11 0 -5 -4 -7 -10 -4 -6 3 -10 -5 -10 -18 0 -16 7
-26 20 -30 16 -4 18 -1 13 24 -4 22 -2 29 10 29 9 0 17 14 22 37 4 21 10 43
14 48 5 6 14 39 20 75 20 105 38 139 56 110 4 -6 16 -8 27 -4 13 4 18 2 14 -4
-3 -5 2 -13 11 -16 9 -4 20 -2 23 5 6 8 20 8 56 -1 27 -6 78 -17 114 -24 36
-7 78 -21 92 -30 19 -12 28 -14 33 -6 8 13 81 8 205 -15 224 -41 406 -78 425
-85 18 -7 25 -3 38 20 18 30 21 120 5 120 -5 0 -6 -4 -3 -10 4 -6 -5 -10 -19
-10 -16 0 -26 6 -26 14 0 10 -18 16 -62 19 -85 7 -180 21 -253 37 -33 8 -64
13 -69 11 -4 -1 -13 2 -20 8 -6 5 -34 12 -61 16 l-51 6 0 67 c0 73 -12 99 -97
210 l-40 53 36 37 c36 37 51 92 26 92 -7 0 -9 10 -7 25 3 13 1 22 -3 19 -19
-11 -7 29 17 62 30 38 26 69 -6 59 -14 -4 -20 -2 -20 9 0 17 -54 59 -64 49 -3
-3 -6 -1 -6 5 0 6 -6 9 -12 7 -9 -4 -14 10 -15 46 -4 84 -7 89 -64 87 -42 -2
-48 -5 -43 -20 3 -10 0 -18 -6 -18 -6 0 -8 -5 -4 -11 4 -7 1 -10 -7 -7 -8 2
-15 19 -17 36 -3 24 -7 30 -20 25 -15 -6 -15 -5 -3 11 8 10 23 15 33 12 16 -4
17 -2 7 10 -9 11 -15 12 -26 2 -21 -17 -31 4 -27 58 1 26 -1 42 -7 38 -5 -3
-7 -10 -4 -15 4 -5 2 -9 -3 -9 -5 0 -6 -14 -4 -32 5 -30 4 -31 -12 -16 -12 13
-28 16 -63 13 -41 -5 -45 -3 -40 15 4 16 -1 22 -26 28 -19 5 -37 5 -44 0 -7
-5 -14 -5 -18 2 -4 6 -14 9 -23 7 -20 -4 -63 15 -81 37 -14 17 -41 11 -41 -9
0 -7 -7 -15 -15 -18 -8 -4 -19 -21 -24 -39 l-11 -33 4 35 c2 19 7 45 11 58 8
23 7 23 -41 17 -27 -4 -55 -14 -61 -23 -10 -12 -13 -13 -13 -2 0 11 -3 11 -12
2 -7 -7 -16 -12 -22 -12 -5 0 -6 3 -3 6 3 4 2 15 -4 25 -6 12 -6 19 0 19 15 0
-11 71 -35 95 -16 16 -21 31 -18 58 4 28 0 38 -16 47 -24 13 -26 38 -5 46 17
7 20 40 5 49 -14 9 -3 43 26 82 25 33 31 48 15 38 -17 -10 -21 13 -5 29 9 9
13 23 10 31 -3 9 1 15 10 15 11 0 13 6 9 20 -3 11 -2 20 3 20 6 0 7 14 2 36
-7 29 -5 39 11 55 10 10 23 19 29 19 5 0 9 4 7 10 -1 5 12 21 28 35 20 17 26
28 18 31 -21 9 -15 21 17 34 17 7 30 16 30 21 0 5 7 9 15 9 8 0 15 5 15 10 0
6 12 8 26 6 19 -4 24 -1 20 9 -2 7 0 15 6 17 6 2 8 10 4 16 -5 9 -14 7 -33 -8
-14 -11 -34 -20 -44 -20 -27 0 -50 -11 -43 -21 6 -11 -14 -11 -41 1 -19 7 -19
8 5 18 14 5 33 19 43 30 18 19 18 20 0 18 -15 -1 -17 5 -15 39 2 22 8 45 13
51 5 7 3 18 -6 30 -13 17 -14 18 -15 1 0 -14 -7 -17 -37 -13 -45 5 -72 35 -47
53 17 13 11 33 -11 33 -17 0 -24 20 -15 45 7 21 59 28 72 10 5 -6 8 -4 8 5 0
13 1 13 11 0 8 -12 9 -10 4 7 -3 12 -1 24 5 28 5 3 10 17 10 30 0 13 5 36 12
50 10 22 16 25 37 20 14 -4 29 -12 33 -18 12 -18 9 2 -2 24 -7 11 -21 19 -37
19 -26 0 -26 1 -8 14 11 8 22 13 25 11 3 -2 11 4 17 14 9 14 8 25 -3 46 -16
31 -19 85 -4 85 14 0 12 27 -2 33 -10 4 -10 8 1 15 18 13 2 21 -62 32 -63 10
-84 0 -103 -46 -14 -33 -14 -34 -47 -20 -17 8 -41 17 -51 21 -17 5 -15 10 19
45 22 22 46 40 54 40 9 0 35 7 59 16 37 15 48 15 82 4 22 -7 40 -16 40 -19 0
-4 13 -11 28 -17 22 -9 33 -8 48 3 21 15 91 15 112 0 8 -6 12 -5 12 4 0 8 11
28 24 44 l24 30 32 -19 c23 -13 54 -19 110 -20 43 0 75 1 71 4 -9 6 -7 76 3
105 8 27 -27 50 -52 36 -15 -9 -14 -10 6 -11 15 0 22 -5 19 -12 -2 -7 -13 -12
-23 -10 -10 2 -25 4 -32 4 -7 1 -10 8 -7 17 2 9 0 23 -5 31 -8 13 -10 12 -10
-3 0 -15 -3 -16 -21 -6 -15 8 -18 14 -10 22 6 6 11 20 11 32 0 12 6 27 12 33
10 10 10 17 0 32 -17 27 -15 43 4 36 10 -4 18 3 26 24 11 32 19 36 49 20 15
-8 19 -7 19 5 0 8 5 15 11 15 9 0 7 -16 -8 -56 -2 -7 1 -15 7 -19 6 -4 11 -1
9 6 -4 35 1 43 17 23 13 -15 15 -16 10 -2 -3 12 -1 15 10 11 18 -7 18 -21 -1
-57 -18 -34 -18 -36 -2 -36 7 0 20 -9 30 -20 18 -22 37 -19 37 5 0 7 5 16 10
18 6 3 5 4 -2 3 -7 -1 -20 14 -30 33 -22 43 -22 42 -3 35 8 -4 15 -1 15 5 0 7
8 11 18 9 14 -2 17 4 15 34 -2 32 0 37 17 35 22 -4 39 -17 22 -17 -7 0 -12 -7
-12 -15 0 -11 11 -15 39 -15 34 0 41 -4 49 -27 6 -16 11 -22 11 -15 1 7 6 10
11 7 13 -8 13 -51 -1 -76 -6 -11 -8 -25 -6 -32 2 -7 10 8 17 33 8 25 27 62 43
82 15 21 26 42 22 48 -8 12 11 39 66 97 30 32 39 48 33 61 -7 16 -7 16 -11 0
-3 -10 -8 -18 -13 -18 -10 0 -1 40 13 58 7 9 13 9 22 2 10 -8 19 -3 35 20 23
32 17 39 -14 15 -14 -10 -23 -11 -40 -3 -11 6 -28 14 -36 18 -8 4 -19 25 -25
46 -5 21 -15 45 -22 52 -7 7 -13 18 -13 23 0 6 -9 7 -20 4 -16 -5 -20 -2 -20
16 0 12 -3 20 -6 17 -3 -4 -5 -32 -5 -63 0 -43 -3 -55 -12 -46 -18 18 -27 13
-27 -14 0 -26 -15 -34 -23 -12 -4 9 -6 9 -6 -1 -1 -8 8 -27 20 -43 22 -32 15
-37 -18 -14 -35 25 -48 87 -29 143 27 77 15 75 -23 -3 -8 -16 -10 -9 -10 33
-1 44 3 57 22 73 12 10 27 18 32 19 17 0 36 38 24 46 -6 4 -15 0 -20 -7 -6
-10 -9 -11 -9 -1 0 6 -5 12 -11 12 -6 0 -9 -7 -6 -14 4 -10 1 -13 -7 -10 -17
6 21 140 65 228 16 33 27 61 25 64 -3 2 -18 -15 -35 -39 -17 -23 -31 -37 -31
-31 0 11 58 84 73 90 4 2 7 10 7 18 0 8 5 14 11 14 7 0 35 24 63 53 93 98 168
158 188 151 11 -3 25 -1 31 5 15 12 53 12 82 1 22 -9 45 -16 60 -20 6 -1 15
-5 20 -9 6 -4 21 -7 35 -7 30 1 49 -16 74 -69 10 -22 25 -52 33 -67 13 -26 32
-111 37 -168 5 -51 19 -90 32 -90 8 0 14 -4 14 -10 0 -5 -6 -10 -14 -10 -26 0
-30 -23 -7 -41 12 -10 23 -27 24 -38 0 -11 4 -18 8 -15 4 2 10 -4 13 -13 6
-14 9 -15 15 -4 5 7 14 10 20 6 9 -5 9 -10 0 -21 -6 -8 -7 -14 -2 -14 6 0 15
10 20 23 11 22 11 22 18 -7 6 -20 4 -31 -3 -34 -8 -2 -7 -12 3 -33 10 -18 12
-29 5 -29 -6 0 -18 -7 -26 -15 -21 -20 -31 -19 -39 5 -8 26 -22 25 -30 -1 -6
-17 -9 -19 -16 -8 -13 21 -12 -17 1 -41 8 -16 7 -18 -4 -14 -9 3 -18 14 -21
24 -3 10 -14 27 -24 39 l-19 21 -4 -25 c-4 -16 -1 -22 6 -18 6 4 5 -1 -3 -10
-7 -9 -11 -28 -9 -42 3 -14 1 -22 -5 -18 -5 3 -8 0 -6 -6 3 -7 8 -12 12 -12 4
1 14 1 22 1 8 0 15 7 15 16 0 9 6 14 13 11 6 -2 10 -11 8 -18 -2 -8 -5 -36 -8
-64 -2 -27 -6 -55 -8 -62 -6 -18 14 -26 30 -13 12 10 15 9 16 -6 1 -11 5 -6 9
11 7 29 8 29 9 4 1 -26 -20 -55 -32 -43 -11 11 15 -71 27 -86 21 -26 19 -74
-3 -99 -25 -28 -26 -35 -7 -28 12 5 14 -1 11 -29 -4 -25 -1 -34 10 -34 8 0 15
-4 15 -10 0 -5 -4 -10 -10 -10 -5 0 -9 -10 -9 -22 1 -17 2 -19 6 -5 2 9 11 17
18 17 7 0 15 5 17 12 3 7 13 5 31 -7 29 -19 57 -14 57 9 0 16 34 31 50 21 5
-3 10 -11 10 -16 0 -6 7 -17 15 -25 10 -10 15 -11 15 -3 0 8 4 8 15 -1 12 -10
19 -10 27 -2 9 9 9 12 1 12 -16 0 -13 61 5 88 15 23 29 27 50 13 12 -7 11 -14
-2 -40 -9 -17 -14 -36 -11 -40 3 -5 -1 -11 -7 -14 -17 -6 -9 -13 35 -32 23 -9
37 -11 37 -5 0 7 8 6 23 -2 12 -7 28 -11 35 -10 7 2 12 -8 12 -24 l0 -27 -26
27 c-45 44 -57 33 -42 -39 6 -28 16 -53 22 -57 7 -5 5 -8 -6 -8 -10 0 -18 -4
-18 -9 0 -5 -9 -7 -19 -4 -14 3 -30 -6 -52 -31 -27 -29 -36 -33 -48 -23 -12
10 -14 8 -9 -11 4 -16 -1 -30 -16 -47 -26 -28 -25 -70 2 -79 10 -3 27 -12 39
-21 21 -16 21 -16 17 27 -4 34 -3 39 6 25 6 -9 8 -23 5 -30 -4 -6 3 -1 14 12
12 13 21 35 21 50 0 14 5 33 10 41 9 13 13 12 29 -7 38 -45 35 -102 -8 -173
-23 -40 -30 -69 -27 -118 2 -29 5 -54 7 -56 13 -11 89 -22 98 -15 6 5 9 7 7 3
-4 -6 30 -44 39 -44 11 0 4 24 -12 42 -9 10 -13 21 -9 25 4 4 11 1 16 -7 12
-19 34 65 26 102 -3 15 -2 28 3 28 5 0 12 10 15 23 8 28 18 147 10 127 -3 -8
-8 -22 -11 -30 -4 -8 -5 -21 -4 -27 1 -7 -3 -13 -9 -13 -6 0 -10 16 -9 38 2
21 -1 44 -6 52 -5 8 -4 11 3 6 6 -3 15 2 21 11 10 17 10 17 11 -1 0 -45 18 3
24 67 6 56 4 67 -9 67 -8 0 -15 -4 -15 -8 0 -5 -6 -16 -13 -27 -13 -17 -15
-16 -30 13 -9 18 -11 34 -6 38 5 3 9 21 9 40 0 42 13 43 52 4 l30 -31 -3 86
c-3 54 0 85 6 85 12 0 11 41 -7 295 -13 197 -12 412 2 449 5 15 10 44 10 64 1
23 9 47 23 65 l23 27 49 -50 c49 -49 49 -49 46 -112 -1 -35 -9 -87 -17 -117
-12 -41 -13 -56 -4 -65 9 -8 19 -2 38 23 15 19 46 55 70 80 42 45 114 148 144
206 33 64 98 266 104 322 12 113 -27 339 -76 448 -10 22 -23 80 -30 130 -6 49
-15 94 -19 100 -4 5 -13 30 -20 55 -14 47 -100 215 -134 262 l-21 28 -625 0
c-614 0 -626 0 -639 -20z m1131 -209 c2 -11 -1 -22 -8 -24 -8 -4 -12 4 -11 23
1 31 11 31 19 1z m287 -111 c0 -5 -4 -10 -10 -10 -5 0 -10 5 -10 10 0 6 5 10
10 10 6 0 10 -4 10 -10z m-2080 -1200 c0 -5 -2 -10 -4 -10 -3 0 -8 5 -11 10
-3 6 -1 10 4 10 6 0 11 -4 11 -10z m1213 -238 c-10 -10 -24 -27 -31 -38 -11
-17 -12 -17 -5 6 3 14 7 39 8 55 3 57 5 64 23 67 25 5 30 -64 5 -90z m-657
-15 c13 -28 13 -29 0 -12 -9 11 -20 25 -26 32 -13 16 -13 26 0 18 6 -3 17 -21
26 -38z m-864 -99 c-2 -43 -8 -78 -12 -78 -4 0 -15 19 -24 43 -13 34 -14 50
-5 82 15 54 19 59 34 43 8 -9 10 -38 7 -90z m858 56 c0 -8 -4 -14 -10 -14 -5
0 -6 8 -3 18 6 14 4 15 -9 4 -13 -10 -18 -10 -24 -1 -4 7 -3 9 4 5 6 -3 13 -2
17 4 8 13 25 3 25 -16z m830 -24 c0 -5 -4 -10 -9 -10 -6 0 -13 5 -16 10 -3 6
1 10 9 10 9 0 16 -4 16 -10z m-1280 -80 c0 -5 -5 -10 -11 -10 -5 0 -7 5 -4 10
3 6 8 10 11 10 2 0 4 -4 4 -10z m1305 -12 c7 -7 15 -34 19 -60 5 -46 5 -48
-19 -48 -21 0 -25 5 -25 28 0 15 -9 42 -20 60 -11 18 -20 34 -20 36 0 9 54 -4
65 -16z m-1090 -10 c-6 -16 -4 -20 8 -15 8 3 18 0 20 -8 6 -14 -29 -15 -51 -1
-18 11 -14 34 6 39 9 3 18 5 20 6 2 0 0 -9 -3 -21z m1010 -18 c3 -5 1 -10 -4
-10 -6 0 -11 5 -11 10 0 6 2 10 4 10 3 0 8 -4 11 -10z m-1168 -62 c-3 -7 -5
-2 -5 12 0 14 2 19 5 13 2 -7 2 -19 0 -25z m317 -25 c-4 -14 -11 -19 -25 -16
-25 7 -24 23 1 23 11 0 20 5 20 12 0 6 2 9 5 7 2 -3 2 -14 -1 -26z m750 -39
c3 -8 2 -12 -4 -9 -6 3 -10 10 -10 16 0 14 7 11 14 -7z m-958 -36 c4 -7 3 -8
-4 -4 -7 4 -12 3 -12 -3 0 -5 8 -14 17 -20 10 -5 14 -13 10 -17 -4 -4 -17 3
-28 15 -18 19 -19 25 -8 32 18 11 17 11 25 -3z m-256 -157 c0 -6 -4 -13 -10
-16 -5 -3 -10 1 -10 9 0 9 5 16 10 16 6 0 10 -4 10 -9z m1577 -88 c-3 -10 -5
-2 -5 17 0 19 2 27 5 18 2 -10 2 -26 0 -35z m-1477 6 c0 -5 -7 -9 -15 -9 -9 0
-12 6 -9 15 6 15 24 11 24 -6z m1410 -69 c0 -5 -4 -10 -9 -10 -6 0 -13 5 -16
10 -3 6 1 10 9 10 9 0 16 -4 16 -10z m-70 -77 c0 -20 -3 -24 -11 -16 -7 7 -9
19 -6 27 10 24 17 19 17 -11z m-15 -42 c-6 -5 -25 10 -25 20 0 5 6 4 14 -3 8
-7 12 -15 11 -17z m-25 -11 c0 -5 -4 -10 -10 -10 -5 0 -10 5 -10 10 0 6 5 10
10 10 6 0 10 -4 10 -10z m-1778 -115 c3 -14 -1 -30 -8 -36 -8 -6 -15 -8 -15
-3 -5 35 -6 60 -2 67 7 13 20 -1 25 -28z m2039 2 c-10 -9 -11 -8 -5 6 3 10 9
15 12 12 3 -3 0 -11 -7 -18z m-2081 -62 c0 -8 -4 -15 -10 -15 -5 0 -10 7 -10
15 0 8 5 15 10 15 6 0 10 -7 10 -15z m-206 -201 c3 -8 2 -12 -4 -9 -6 3 -10
10 -10 16 0 14 7 11 14 -7z m-27 -41 c-15 -16 -17 -16 -17 -1 0 9 6 18 13 21
20 7 22 -2 4 -20z m73 2 c0 -9 -6 -12 -15 -9 -8 4 -12 10 -9 15 8 14 24 10 24
-6z m190 -305 c-27 -24 -30 -24 -30 -6 0 13 15 21 44 25 5 0 -1 -8 -14 -19z
m-55 -20 c3 -5 1 -10 -4 -10 -6 0 -11 5 -11 10 0 6 2 10 4 10 3 0 8 -4 11 -10z
m-38 -36 c-3 -3 -12 -4 -19 -1 -8 3 -5 6 6 6 11 1 17 -2 13 -5z m23 -105 c0
-5 -7 -9 -15 -9 -9 0 -12 6 -9 15 6 15 24 11 24 -6z m142 -591 c-9 -9 -15 -9
-24 0 -9 9 -7 12 12 12 19 0 21 -3 12 -12z m295 -104 c-3 -3 -12 -4 -19 -1 -8
3 -5 6 6 6 11 1 17 -2 13 -5z m-357 -688 c0 -3 -4 -8 -10 -11 -5 -3 -10 -1
-10 4 0 6 5 11 10 11 6 0 10 -2 10 -4z m556 -21 c20 -8 38 -24 41 -35 3 -12
21 -27 39 -35 35 -14 49 -51 17 -41 -10 3 -58 12 -108 21 -124 22 -118 18 -88
65 29 44 45 48 99 25z m-566 -45 c0 -5 -2 -10 -4 -10 -3 0 -8 5 -11 10 -3 6
-1 10 4 10 6 0 11 -4 11 -10z m-113 -32 c-3 -8 -6 -5 -6 6 -1 11 2 17 5 13 3
-3 4 -12 1 -19z m1253 -154 c0 -2 -7 -4 -15 -4 -8 0 -15 4 -15 10 0 5 7 7 15
4 8 -4 15 -8 15 -10z m-1230 -4 c0 -5 -7 -10 -15 -10 -8 0 -15 5 -15 10 0 6 7
10 15 10 8 0 15 -4 15 -10z m1163 3 c-7 -2 -19 -2 -25 0 -7 3 -2 5 12 5 14 0
19 -2 13 -5z m-1268 -13 c3 -5 1 -10 -4 -10 -6 0 -11 5 -11 10 0 6 2 10 4 10
3 0 8 -4 11 -10z m-35 -4 c0 -3 -4 -8 -10 -11 -5 -3 -10 -1 -10 4 0 6 5 11 10
11 6 0 10 -2 10 -4z m-90 -16 c0 -5 -7 -10 -15 -10 -8 0 -15 5 -15 10 0 6 7
10 15 10 8 0 15 -4 15 -10z m1578 3 c-23 -6 -23 -19 -2 -27 9 -4 14 -9 12 -12
-3 -3 -20 4 -38 15 -27 16 -29 20 -14 24 11 3 28 5 39 5 16 0 17 -1 3 -5z m52
-43 c0 -5 -8 -10 -17 -10 -15 0 -16 2 -3 10 19 12 20 12 20 0z m-1520 -54 c0
-2 -7 -6 -15 -10 -8 -3 -15 -1 -15 4 0 6 7 10 15 10 8 0 15 -2 15 -4z m135 -6
c-3 -5 -12 -10 -18 -10 -7 0 -6 4 3 10 19 12 23 12 15 0z m-81 -6 c10 -4 16
-18 16 -39 0 -28 -5 -35 -30 -44 -34 -11 -34 -11 -18 24 9 19 9 28 0 37 -9 9
-12 9 -12 -1 0 -7 -5 -9 -11 -6 -6 5 -4 12 8 21 21 15 25 16 47 8z m276 -64
c0 -5 -4 -10 -10 -10 -5 0 -10 5 -10 10 0 6 5 10 10 10 6 0 10 -4 10 -10z
m-390 -30 c0 -5 -5 -10 -11 -10 -5 0 -7 5 -4 10 3 6 8 10 11 10 2 0 4 -4 4
-10z m20 -25 c-7 -8 -20 -15 -29 -15 -12 0 -10 5 9 20 28 21 39 18 20 -5z m77
-17 c-3 -8 -6 -5 -6 6 -1 11 2 17 5 13 3 -3 4 -12 1 -19z m49 -2 c-15 -13 -26
-31 -26 -40 0 -17 -9 -20 -34 -10 -23 9 -20 24 4 24 11 0 20 7 20 15 0 9 10
20 23 25 36 15 39 11 13 -14z m52 -34 c2 -12 0 -22 -5 -22 -17 1 -40 25 -35
38 7 21 37 9 40 -16z m112 7 c0 -5 -7 -9 -15 -9 -8 0 -15 7 -15 15 0 9 6 12
15 9 8 -4 15 -10 15 -15z m-420 -26 c0 -20 -24 -11 -28 10 -2 12 1 15 12 11 9
-3 16 -13 16 -21z m103 13 c9 -7 17 -16 17 -20 0 -12 -18 -6 -41 14 -28 22 -6
28 24 6z m412 -48 c-4 -29 -9 -65 -10 -79 -1 -14 -6 -32 -11 -40 -5 -8 -9 -16
-10 -19 -1 -3 -5 -20 -9 -38 -4 -18 -11 -35 -15 -37 -5 -3 -6 -14 -3 -25 3
-11 0 -20 -6 -20 -6 0 -11 -7 -11 -15 0 -8 -6 -15 -12 -15 -8 -1 -6 -6 5 -14
9 -7 17 -18 17 -23 0 -15 -28 -37 -49 -38 -14 -1 -16 4 -13 24 3 14 9 32 14
38 13 16 1 81 -18 100 -18 19 -18 37 1 29 10 -3 20 5 30 24 14 28 14 29 -15
35 -17 4 -30 11 -30 16 0 6 4 7 10 4 17 -11 60 26 60 51 0 13 -4 24 -10 24 -5
0 -10 5 -10 10 0 6 11 8 25 4 19 -5 25 -3 23 7 -2 9 5 13 20 12 16 -2 22 2 22
17 0 11 3 20 6 20 3 0 3 -24 -1 -52z m-445 18 c0 -8 -4 -17 -9 -20 -10 -7 -23
19 -14 28 11 11 23 6 23 -8z m179 0 c-12 -10 -59 -15 -59 -6 0 5 14 10 32 10
17 0 29 -2 27 -4z m-339 -61 c0 -8 5 -15 11 -15 5 0 7 -5 4 -10 -5 -8 -11 -7
-21 1 -16 13 -19 39 -4 39 6 0 10 -7 10 -15z m333 9 c8 -8 -3 -34 -14 -34 -5
0 -9 9 -9 20 0 19 11 26 23 14z m-48 -34 c3 -5 1 -10 -4 -10 -6 0 -11 5 -11
10 0 6 2 10 4 10 3 0 8 -4 11 -10z m137 -92 c-9 -9 -12 -7 -12 12 0 19 3 21
12 12 9 -9 9 -15 0 -24z m-197 -18 c9 -15 -3 -30 -20 -24 -7 3 -11 12 -8 20 6
16 19 18 28 4z m139 -39 c3 -5 15 -7 26 -4 14 4 20 0 20 -11 0 -11 -7 -16 -17
-14 -10 1 -24 -1 -31 -6 -18 -11 -36 8 -29 28 7 18 23 21 31 7z m-211 -78 c-7
-2 -19 -2 -25 0 -7 3 -2 5 12 5 14 0 19 -2 13 -5z m277 -24 c0 -10 -4 -19 -10
-19 -5 0 -10 12 -10 26 0 14 4 23 10 19 6 -3 10 -15 10 -26z m-383 -61 c-3 -8
-6 -5 -6 6 -1 11 2 17 5 13 3 -3 4 -12 1 -19z m468 -23 c0 -5 -10 -11 -22 -13
-16 -2 -23 2 -23 13 0 11 7 15 23 13 12 -2 22 -7 22 -13z m-370 -25 c-3 -5
-10 -10 -16 -10 -5 0 -9 5 -9 10 0 6 7 10 16 10 8 0 12 -4 9 -10z m225 -50 c0
-5 -2 -10 -4 -10 -3 0 -8 5 -11 10 -3 6 -1 10 4 10 6 0 11 -4 11 -10z m-120
-50 c0 -5 -5 -10 -11 -10 -5 0 -7 5 -4 10 3 6 8 10 11 10 2 0 4 -4 4 -10z m58
-79 c-2 -9 -11 -17 -21 -19 -21 -4 -35 27 -17 38 19 12 42 0 38 -19z m-68 -26
c0 -8 -4 -15 -9 -15 -13 0 -22 16 -14 24 11 11 23 6 23 -9z m-30 -266 c0 -5
-4 -9 -10 -9 -5 0 -10 7 -10 16 0 8 5 12 10 9 6 -3 10 -10 10 -16z"/>
<path d="M2996 4924 c-4 -14 -5 -28 -3 -31 3 -2 8 8 11 23 4 14 5 28 3 31 -3
2 -8 -8 -11 -23z"/>
<path d="M2855 4920 c-3 -5 0 -10 9 -10 8 0 16 -6 19 -12 2 -7 8 -10 12 -6 4
4 0 14 -8 23 -18 18 -24 19 -32 5z"/>
<path d="M3386 4913 c-6 -14 -5 -15 5 -6 7 7 10 15 7 18 -3 3 -9 -2 -12 -12z"/>
<path d="M2970 4880 c0 -5 5 -10 11 -10 5 0 7 5 4 10 -3 6 -8 10 -11 10 -2 0
-4 -4 -4 -10z"/>
<path d="M3001 4864 c0 -11 3 -14 6 -6 3 7 2 16 -1 19 -3 4 -6 -2 -5 -13z"/>
<path d="M3061 4867 c2 -1 13 -9 24 -17 19 -14 19 -14 6 3 -7 9 -18 17 -24 17
-6 0 -8 -1 -6 -3z"/>
<path d="M2970 4830 c0 -5 5 -10 10 -10 6 0 10 5 10 10 0 6 -4 10 -10 10 -5 0
-10 -4 -10 -10z"/>
<path d="M2851 4814 c0 -11 3 -14 6 -6 3 7 2 16 -1 19 -3 4 -6 -2 -5 -13z"/>
<path d="M3418 4718 c-27 -84 -27 -108 -2 -87 7 6 24 9 37 5 29 -7 41 2 26 20
-6 8 -14 43 -17 79 -2 36 -8 65 -11 65 -3 0 -18 -37 -33 -82z"/>
<path d="M3150 4739 c0 -11 5 -17 10 -14 6 3 10 13 10 21 0 8 -4 14 -10 14 -5
0 -10 -9 -10 -21z"/>
<path d="M2885 4730 c3 -5 8 -10 11 -10 2 0 4 5 4 10 0 6 -5 10 -11 10 -5 0
-7 -4 -4 -10z"/>
<path d="M3111 4514 c-12 -14 -12 -17 0 -25 19 -12 49 -11 49 1 0 6 -9 10 -20
10 -13 0 -18 5 -14 15 8 19 3 19 -15 -1z"/>
<path d="M2570 4323 c1 -18 18 -35 24 -24 4 6 4 16 1 21 -7 12 -25 13 -25 3z"/>
<path d="M3076 4289 c-8 -42 0 -50 9 -9 4 17 5 34 2 36 -2 3 -7 -10 -11 -27z"/>
<path d="M2858 4283 c7 -3 16 -2 19 1 4 3 -2 6 -13 5 -11 0 -14 -3 -6 -6z"/>
<path d="M2635 4260 c-3 -5 -1 -10 4 -10 6 0 11 5 11 10 0 6 -2 10 -4 10 -3 0
-8 -4 -11 -10z"/>
<path d="M2598 4233 c7 -3 16 -2 19 1 4 3 -2 6 -13 5 -11 0 -14 -3 -6 -6z"/>
<path d="M3041 4196 c-8 -10 -9 -16 -1 -21 5 -3 13 1 16 10 9 22 -1 29 -15 11z"/>
<path d="M3585 4200 c3 -5 8 -10 11 -10 2 0 4 5 4 10 0 6 -5 10 -11 10 -5 0
-7 -4 -4 -10z"/>
<path d="M2565 4190 c-3 -5 1 -10 10 -10 9 0 13 5 10 10 -3 6 -8 10 -10 10 -2
0 -7 -4 -10 -10z"/>
<path d="M3541 4140 c0 -32 2 -40 9 -29 5 9 6 28 0 45 -8 27 -8 26 -9 -16z"/>
<path d="M2607 4159 c7 -7 15 -10 18 -7 3 3 -2 9 -12 12 -14 6 -15 5 -6 -5z"/>
<path d="M3771 4161 c-7 -5 -11 -15 -9 -23 2 -13 6 -12 21 2 19 19 10 34 -12
21z"/>
<path d="M3806 4141 c-4 -7 -5 -15 -2 -18 9 -9 19 4 14 18 -4 11 -6 11 -12 0z"/>
<path d="M3982 4060 c0 -14 2 -19 5 -12 2 6 2 18 0 25 -3 6 -5 1 -5 -13z"/>
<path d="M2655 4020 c27 -12 43 -12 25 0 -8 5 -22 9 -30 9 -10 0 -8 -3 5 -9z"/>
<path d="M3350 3868 c0 -54 4 -98 8 -98 5 0 7 -13 4 -29 -2 -16 2 -46 8 -67
l13 -38 17 22 c10 11 21 18 25 14 19 -19 -12 57 -39 95 -26 37 -29 47 -18 63
8 13 10 36 6 63 -13 83 -23 72 -24 -25z"/>
<path d="M2255 3920 c-3 -5 1 -10 9 -10 9 0 16 5 16 10 0 6 -4 10 -9 10 -6 0
-13 -4 -16 -10z"/>
<path d="M2215 3880 c3 -5 8 -10 11 -10 2 0 4 5 4 10 0 6 -5 10 -11 10 -5 0
-7 -4 -4 -10z"/>
<path d="M2558 3858 c-10 -12 -18 -27 -18 -33 0 -7 3 -7 8 0 8 11 62 17 60 6
-4 -20 17 -41 41 -40 17 1 20 3 9 6 -10 2 -18 11 -18 19 0 8 -5 14 -10 14 -6
0 -16 11 -22 25 -14 31 -28 31 -50 3z"/>
<path d="M2670 3848 l-21 -23 21 -9 c14 -6 24 -6 32 2 9 9 8 12 -6 12 -10 0
-16 6 -13 13 2 6 15 11 28 9 19 -2 21 -1 9 7 -21 15 -27 14 -50 -11z"/>
<path d="M2856 3845 c4 -8 8 -15 10 -15 2 0 4 7 4 15 0 8 -4 15 -10 15 -5 0
-7 -7 -4 -15z"/>
<path d="M2315 3773 c11 -10 19 -12 23 -6 4 5 14 13 22 16 8 3 -2 6 -23 6 -36
1 -37 0 -22 -16z"/>
<path d="M2420 3770 c0 -5 5 -10 10 -10 6 0 10 5 10 10 0 6 -4 10 -10 10 -5 0
-10 -4 -10 -10z"/>
<path d="M2288 3763 c7 -3 16 -2 19 1 4 3 -2 6 -13 5 -11 0 -14 -3 -6 -6z"/>
<path d="M2760 3750 c-9 -6 -10 -10 -3 -10 6 0 15 5 18 10 8 12 4 12 -15 0z"/>
<path d="M2796 3735 c-9 -14 -13 -25 -9 -26 5 0 19 -3 33 -5 37 -7 55 3 40 21
-17 20 -31 19 -23 -2 6 -16 5 -16 -10 -5 -8 8 -13 20 -10 28 8 22 -3 16 -21
-11z"/>
<path d="M2418 3743 c7 -3 16 -2 19 1 4 3 -2 6 -13 5 -11 0 -14 -3 -6 -6z"/>
<path d="M2385 3720 c-2 -4 -15 -5 -28 -3 -20 4 -25 0 -29 -20 -4 -20 -1 -24
11 -20 9 4 23 12 31 19 8 7 29 14 45 16 l30 3 -28 6 c-15 4 -30 3 -32 -1z"/>
<path d="M2492 3713 c-17 -7 -5 -23 19 -23 10 0 19 7 19 15 0 15 -14 18 -38 8z"/>
<path d="M2215 3680 c-3 -5 -2 -10 4 -10 5 0 13 5 16 10 3 6 2 10 -4 10 -5 0
-13 -4 -16 -10z"/>
<path d="M2248 3646 c-7 -34 0 -59 13 -50 5 3 7 10 4 15 -4 5 0 9 7 9 9 0 10
2 2 8 -7 4 -14 16 -16 27 -3 16 -5 14 -10 -9z"/>
<path d="M3908 3623 c7 -3 16 -2 19 1 4 3 -2 6 -13 5 -11 0 -14 -3 -6 -6z"/>
<path d="M2410 3535 c-18 -21 -9 -26 30 -19 30 7 32 8 15 21 -24 17 -30 16
-45 -2z"/>
<path d="M2030 3480 c0 -11 3 -20 8 -20 4 0 13 9 20 20 11 18 10 20 -8 20 -13
0 -20 -7 -20 -20z"/>
<path d="M3440 3488 c0 -9 5 -20 10 -23 13 -8 13 5 0 25 -8 13 -10 13 -10 -2z"/>
<path d="M3740 3383 c0 -12 7 -19 20 -19 25 0 23 29 -3 34 -11 2 -17 -3 -17
-15z"/>
<path d="M2191 3374 c-27 -19 -27 -34 0 -34 18 0 49 21 49 33 0 13 -30 14 -49
1z"/>
<path d="M3942 3367 c-16 -19 14 -60 39 -54 11 3 19 -1 21 -12 3 -13 6 -12 16
6 25 46 -44 99 -76 60z"/>
<path d="M3900 3280 c0 -6 7 -10 15 -10 8 0 15 2 15 4 0 2 -7 6 -15 10 -8 3
-15 1 -15 -4z"/>
<path d="M3527 3218 c4 -7 9 -24 11 -38 2 -14 10 -44 18 -68 8 -23 14 -73 15
-110 0 -37 3 -61 6 -54 2 6 12 12 20 12 13 0 14 9 9 53 -6 52 -6 52 10 23 10
-17 18 -64 21 -125 7 -122 21 -141 85 -116 11 4 18 0 23 -14 4 -12 11 -18 17
-15 7 5 9 1 5 -9 -3 -8 0 -18 8 -20 16 -7 25 1 25 23 0 9 8 25 18 36 21 23 54
74 48 74 -2 0 -17 -7 -32 -15 -32 -17 -80 -22 -55 -6 15 10 23 128 10 137 -3
2 -5 15 -4 29 2 14 -1 25 -6 25 -5 0 -8 8 -7 18 4 51 -2 61 -43 72 -40 11 -65
6 -42 -8 7 -5 9 -13 4 -21 -6 -10 -13 -10 -28 -2 -11 5 -23 8 -26 4 -4 -3 -12
6 -18 21 -7 14 -20 28 -31 32 -10 3 -25 21 -33 40 -8 19 -19 34 -25 34 -6 0
-8 -5 -3 -12z m57 -97 c-7 -7 -34 21 -28 31 3 5 12 1 19 -9 7 -10 12 -20 9
-22z m113 -153 c-3 -8 -6 -5 -6 6 -1 11 2 17 5 13 3 -3 4 -12 1 -19z"/>
<path d="M4001 3182 c-1 -13 -5 -21 -10 -18 -13 9 -17 -9 -12 -56 l3 -41 20
42 c15 33 17 48 9 69 -9 26 -9 26 -10 4z"/>
<path d="M3680 3180 c0 -5 5 -10 11 -10 5 0 7 5 4 10 -3 6 -8 10 -11 10 -2 0
-4 -4 -4 -10z"/>
<path d="M3750 2721 c0 -7 -4 -9 -10 -6 -6 4 -9 -5 -8 -19 1 -15 4 -26 5 -26
7 0 23 53 18 58 -3 3 -5 0 -5 -7z"/>
<path d="M2510 2360 c0 -5 5 -10 10 -10 6 0 10 5 10 10 0 6 -4 10 -10 10 -5 0
-10 -4 -10 -10z"/>
<path d="M2976 2175 c-3 -8 -18 -15 -33 -15 -18 0 -33 -8 -41 -21 -9 -14 -19
-18 -32 -14 -14 4 -20 2 -20 -9 0 -20 39 -17 69 6 13 10 28 18 32 18 12 0 49
32 49 42 0 14 -18 9 -24 -7z"/>
<path d="M3178 1993 c7 -3 16 -2 19 1 4 3 -2 6 -13 5 -11 0 -14 -3 -6 -6z"/>
<path d="M3007 1959 c-10 -11 -15 -24 -12 -28 2 -5 -2 -21 -9 -37 -37 -77 -28
-96 19 -41 16 17 43 49 62 70 18 20 33 41 33 45 0 5 -17 9 -38 10 -27 1 -43
-4 -55 -19z"/>
<path d="M1045 1830 c-19 -7 -18 -8 8 -21 21 -9 30 -10 39 -1 9 9 8 12 -4 12
-9 0 -18 4 -20 9 -1 4 -12 5 -23 1z"/>
<path d="M3541 1314 c0 -11 3 -14 6 -6 3 7 2 16 -1 19 -3 4 -6 -2 -5 -13z"/>
<path d="M4697 1052 c-12 -13 -15 -22 -8 -27 19 -11 12 -27 -8 -20 -11 3 -22
1 -26 -5 -3 -5 -1 -10 5 -10 7 0 26 -10 43 -22 17 -12 27 -16 23 -9 -7 10 -4
11 14 1 12 -6 81 -16 153 -21 l132 -9 175 -87 c96 -49 184 -88 195 -88 29 -1
75 -26 68 -38 -3 -6 -1 -7 6 -3 6 4 17 3 24 -2 18 -15 207 -76 332 -108 65
-16 147 -45 199 -72 134 -66 260 -119 274 -114 6 2 12 -1 12 -6 0 -10 60 -42
79 -42 15 0 15 296 1 305 -6 4 -77 7 -157 6 -153 0 -193 5 -307 41 -62 19 -69
20 -77 5 -5 -9 -15 -14 -22 -12 -15 5 -68 13 -172 25 -92 11 -123 21 -220 65
-38 18 -80 35 -92 39 -13 4 -40 22 -62 40 -21 18 -54 39 -72 46 -19 8 -63 32
-99 55 -83 53 -86 54 -199 65 -53 5 -118 13 -146 16 -42 5 -53 3 -68 -14z"/>
<path d="M5128 1003 c7 -3 16 -2 19 1 4 3 -2 6 -13 5 -11 0 -14 -3 -6 -6z"/>
<path d="M2333 979 c-6 -8 -13 -30 -16 -49 -3 -19 -8 -46 -13 -59 -5 -17 -4
-22 4 -17 7 4 19 32 28 62 17 58 16 85 -3 63z"/>
<path d="M4465 960 c-3 -5 -1 -10 4 -10 6 0 11 5 11 10 0 6 -2 10 -4 10 -3 0
-8 -4 -11 -10z"/>
<path d="M4465 930 c27 -12 43 -12 25 0 -8 5 -22 9 -30 9 -10 0 -8 -3 5 -9z"/>
<path d="M4728 933 c7 -3 16 -2 19 1 4 3 -2 6 -13 5 -11 0 -14 -3 -6 -6z"/>
<path d="M4225 882 l-39 -18 24 -17 c13 -9 26 -13 30 -9 3 4 18 13 33 20 25
11 27 14 13 27 -18 18 -12 18 -61 -3z"/>
<path d="M4518 893 c7 -3 16 -2 19 1 4 3 -2 6 -13 5 -11 0 -14 -3 -6 -6z"/>
<path d="M4310 862 c0 -4 12 -9 28 -10 21 -1 23 0 12 8 -18 12 -40 13 -40 2z"/>
<path d="M2291 814 c0 -11 3 -14 6 -6 3 7 2 16 -1 19 -3 4 -6 -2 -5 -13z"/>
<path d="M2265 757 c-4 -10 -5 -21 -1 -24 10 -10 18 4 13 24 -4 17 -4 17 -12
0z"/>
<path d="M2252 695 c-14 -31 -15 -35 -3 -35 8 0 23 51 17 58 -2 1 -8 -9 -14
-23z"/>
<path d="M2210 595 c0 -8 2 -15 4 -15 2 0 6 7 10 15 3 8 1 15 -4 15 -6 0 -10
-7 -10 -15z"/>
<path d="M2185 503 c-30 -95 -28 -90 -16 -73 14 19 45 120 38 126 -2 2 -12
-22 -22 -53z"/>
</g>
</svg>
